# xmcd CD database file
#
# Track frame offsets:
#	150
#	19520
#	50213
#	72568
#	104804
#	127187
#	161763
#	177374
#	202476
#	238427
#	250762
#
# Disc length: 3629 seconds
#
# Revision: 1
# Processed by: cddbd v1.5PL3 Copyright (c) Steve Scherf et al.
# Submitted via: CDex 1.51
#
DISCID=b60e2b0b
DTITLE=Vesely and Krajic - BLUE CONDITION
DYEAR=1997
DGENRE=Blues
TTITLE0=DONES SOMEBODY WRONG
TTITLE1=HOOCHIE COOCHIE MAN
TTITLE2=AIN'T GOT YOU
TTITLE3=SOMEDAY AFTER A WHILE
TTITLE4=ALL YOUR LOVE
TTITLE5=STORMY MONDAY BLUES
TTITLE6=TROUBLE NO MORE
TTITLE7=SITTING ON TOP OF THE WORLD
TTITLE8=HELP ME
TTITLE9=HOOCHIE COOCHIE MAN II
TTITLE10=THIRD DEGREE
EXTD=YEAR: 1997
EXTT0=
EXTT1=
EXTT2=
EXTT3=
EXTT4=
EXTT5=
EXTT6=
EXTT7=
EXTT8=
EXTT9=
EXTT10=
PLAYORDER=
